<mxfile host="app.diagrams.net" modified="2021-09-30T02:31:07.267Z" agent="5.0 (Macintosh; Intel Mac OS X 10_15_7) AppleWebKit/537.36 (KHTML, like Gecko) Chrome/94.0.4606.61 Safari/537.36" etag="2wLrgWCNuEvfpuzVxC2K" version="15.3.1" type="github">
  <diagram id="q0h6h50ZeGP1AFaBJtAT" name="Page-1">
    <mxGraphModel dx="1123" dy="2192" grid="1" gridSize="10" guides="1" tooltips="1" connect="1" arrows="1" fold="1" page="1" pageScale="1" pageWidth="827" pageHeight="1169" math="0" shadow="0">
      <root>
        <mxCell id="0" />
        <mxCell id="1" parent="0" />
        <mxCell id="Bn7r3NDw2zeTOR9xKA20-1" value="airport" style="rounded=0;whiteSpace=wrap;html=1;" vertex="1" parent="1">
          <mxGeometry x="390" y="210.5" width="70" height="30" as="geometry" />
        </mxCell>
        <mxCell id="Bn7r3NDw2zeTOR9xKA20-2" value="&lt;u&gt;code&lt;/u&gt;" style="ellipse;whiteSpace=wrap;html=1;" vertex="1" parent="1">
          <mxGeometry x="344" y="292.5" width="70" height="30" as="geometry" />
        </mxCell>
        <mxCell id="Bn7r3NDw2zeTOR9xKA20-3" value="address" style="ellipse;whiteSpace=wrap;html=1;" vertex="1" parent="1">
          <mxGeometry x="430" y="292.5" width="70" height="30" as="geometry" />
        </mxCell>
        <mxCell id="Bn7r3NDw2zeTOR9xKA20-4" value="country" style="ellipse;whiteSpace=wrap;html=1;" vertex="1" parent="1">
          <mxGeometry x="490" y="267.5" width="70" height="30" as="geometry" />
        </mxCell>
        <mxCell id="Bn7r3NDw2zeTOR9xKA20-6" value="" style="endArrow=none;html=1;entryX=0.5;entryY=1;entryDx=0;entryDy=0;exitX=0.5;exitY=0;exitDx=0;exitDy=0;" edge="1" parent="1" source="Bn7r3NDw2zeTOR9xKA20-2" target="Bn7r3NDw2zeTOR9xKA20-1">
          <mxGeometry width="50" height="50" relative="1" as="geometry">
            <mxPoint x="380" y="490" as="sourcePoint" />
            <mxPoint x="430" y="440" as="targetPoint" />
          </mxGeometry>
        </mxCell>
        <mxCell id="Bn7r3NDw2zeTOR9xKA20-7" value="" style="endArrow=none;html=1;entryX=0.5;entryY=1;entryDx=0;entryDy=0;exitX=0.5;exitY=0;exitDx=0;exitDy=0;" edge="1" parent="1" source="Bn7r3NDw2zeTOR9xKA20-3" target="Bn7r3NDw2zeTOR9xKA20-1">
          <mxGeometry width="50" height="50" relative="1" as="geometry">
            <mxPoint x="340" y="480" as="sourcePoint" />
            <mxPoint x="390" y="430" as="targetPoint" />
          </mxGeometry>
        </mxCell>
        <mxCell id="Bn7r3NDw2zeTOR9xKA20-8" value="" style="endArrow=none;html=1;entryX=0.5;entryY=1;entryDx=0;entryDy=0;exitX=0.5;exitY=0;exitDx=0;exitDy=0;" edge="1" parent="1" source="Bn7r3NDw2zeTOR9xKA20-4" target="Bn7r3NDw2zeTOR9xKA20-1">
          <mxGeometry width="50" height="50" relative="1" as="geometry">
            <mxPoint x="340" y="490" as="sourcePoint" />
            <mxPoint x="390" y="440" as="targetPoint" />
          </mxGeometry>
        </mxCell>
        <mxCell id="Bn7r3NDw2zeTOR9xKA20-9" value="Terminal" style="rounded=0;whiteSpace=wrap;html=1;" vertex="1" parent="1">
          <mxGeometry x="15" y="250" width="75" height="30" as="geometry" />
        </mxCell>
        <mxCell id="Bn7r3NDw2zeTOR9xKA20-10" value="&lt;u&gt;Terminal_ID&lt;/u&gt;" style="ellipse;whiteSpace=wrap;html=1;" vertex="1" parent="1">
          <mxGeometry x="90" y="340" width="90" height="30" as="geometry" />
        </mxCell>
        <mxCell id="Bn7r3NDw2zeTOR9xKA20-11" value="" style="endArrow=none;html=1;exitX=0.5;exitY=0;exitDx=0;exitDy=0;entryX=0.5;entryY=1;entryDx=0;entryDy=0;" edge="1" parent="1" source="Bn7r3NDw2zeTOR9xKA20-10" target="Bn7r3NDw2zeTOR9xKA20-9">
          <mxGeometry width="50" height="50" relative="1" as="geometry">
            <mxPoint x="210" y="360" as="sourcePoint" />
            <mxPoint x="260" y="310" as="targetPoint" />
          </mxGeometry>
        </mxCell>
        <mxCell id="Bn7r3NDw2zeTOR9xKA20-13" value="locate" style="rhombus;whiteSpace=wrap;html=1;" vertex="1" parent="1">
          <mxGeometry x="220" y="272.5" width="80" height="45" as="geometry" />
        </mxCell>
        <mxCell id="Bn7r3NDw2zeTOR9xKA20-14" value="" style="endArrow=none;html=1;exitX=1;exitY=0.5;exitDx=0;exitDy=0;entryX=0;entryY=0.5;entryDx=0;entryDy=0;" edge="1" parent="1" source="Bn7r3NDw2zeTOR9xKA20-9" target="Bn7r3NDw2zeTOR9xKA20-13">
          <mxGeometry width="50" height="50" relative="1" as="geometry">
            <mxPoint x="280" y="340" as="sourcePoint" />
            <mxPoint x="330" y="290" as="targetPoint" />
          </mxGeometry>
        </mxCell>
        <mxCell id="Bn7r3NDw2zeTOR9xKA20-16" value="&lt;u&gt;gate_number&lt;/u&gt;" style="ellipse;whiteSpace=wrap;html=1;" vertex="1" parent="1">
          <mxGeometry x="90" y="220" width="75" height="27.5" as="geometry" />
        </mxCell>
        <mxCell id="Bn7r3NDw2zeTOR9xKA20-17" value="gate" style="rounded=0;whiteSpace=wrap;html=1;" vertex="1" parent="1">
          <mxGeometry x="140" y="162.5" width="80" height="30" as="geometry" />
        </mxCell>
        <mxCell id="Bn7r3NDw2zeTOR9xKA20-18" value="" style="endArrow=none;html=1;exitX=0.5;exitY=0;exitDx=0;exitDy=0;entryX=0.5;entryY=1;entryDx=0;entryDy=0;" edge="1" parent="1" source="Bn7r3NDw2zeTOR9xKA20-16" target="Bn7r3NDw2zeTOR9xKA20-17">
          <mxGeometry width="50" height="50" relative="1" as="geometry">
            <mxPoint x="200" y="340" as="sourcePoint" />
            <mxPoint x="250" y="290" as="targetPoint" />
          </mxGeometry>
        </mxCell>
        <mxCell id="Bn7r3NDw2zeTOR9xKA20-19" value="locate" style="rhombus;whiteSpace=wrap;html=1;" vertex="1" parent="1">
          <mxGeometry x="235" y="203.5" width="80" height="44" as="geometry" />
        </mxCell>
        <mxCell id="Bn7r3NDw2zeTOR9xKA20-21" value="" style="endArrow=none;html=1;exitX=1;exitY=0.5;exitDx=0;exitDy=0;entryX=0;entryY=0.5;entryDx=0;entryDy=0;" edge="1" parent="1" source="Bn7r3NDw2zeTOR9xKA20-17" target="Bn7r3NDw2zeTOR9xKA20-19">
          <mxGeometry width="50" height="50" relative="1" as="geometry">
            <mxPoint x="200" y="340" as="sourcePoint" />
            <mxPoint x="250" y="290" as="targetPoint" />
          </mxGeometry>
        </mxCell>
        <mxCell id="Bn7r3NDw2zeTOR9xKA20-22" value="flight" style="rounded=0;whiteSpace=wrap;html=1;" vertex="1" parent="1">
          <mxGeometry x="235" y="30" width="62" height="30" as="geometry" />
        </mxCell>
        <mxCell id="Bn7r3NDw2zeTOR9xKA20-24" value="airline_number" style="ellipse;whiteSpace=wrap;html=1;" vertex="1" parent="1">
          <mxGeometry x="130" y="-50" width="100" height="40" as="geometry" />
        </mxCell>
        <mxCell id="Bn7r3NDw2zeTOR9xKA20-25" value="" style="endArrow=none;html=1;entryX=0.5;entryY=0;entryDx=0;entryDy=0;" edge="1" parent="1" target="Bn7r3NDw2zeTOR9xKA20-22">
          <mxGeometry width="50" height="50" relative="1" as="geometry">
            <mxPoint x="200" y="-10" as="sourcePoint" />
            <mxPoint x="266" y="60" as="targetPoint" />
          </mxGeometry>
        </mxCell>
        <mxCell id="Bn7r3NDw2zeTOR9xKA20-26" value="date" style="ellipse;whiteSpace=wrap;html=1;" vertex="1" parent="1">
          <mxGeometry x="239" y="-50" width="76" height="30" as="geometry" />
        </mxCell>
        <mxCell id="Bn7r3NDw2zeTOR9xKA20-27" value="" style="endArrow=none;html=1;exitX=0.5;exitY=1;exitDx=0;exitDy=0;" edge="1" parent="1" source="Bn7r3NDw2zeTOR9xKA20-26">
          <mxGeometry width="50" height="50" relative="1" as="geometry">
            <mxPoint x="380" y="340" as="sourcePoint" />
            <mxPoint x="266" y="30" as="targetPoint" />
          </mxGeometry>
        </mxCell>
        <mxCell id="Bn7r3NDw2zeTOR9xKA20-28" value="airline_company" style="ellipse;whiteSpace=wrap;html=1;" vertex="1" parent="1">
          <mxGeometry x="327" y="-50" width="110" height="40" as="geometry" />
        </mxCell>
        <mxCell id="Bn7r3NDw2zeTOR9xKA20-29" value="" style="endArrow=none;html=1;exitX=0.5;exitY=1;exitDx=0;exitDy=0;entryX=0.5;entryY=0;entryDx=0;entryDy=0;" edge="1" parent="1" source="Bn7r3NDw2zeTOR9xKA20-28" target="Bn7r3NDw2zeTOR9xKA20-22">
          <mxGeometry width="50" height="50" relative="1" as="geometry">
            <mxPoint x="380" y="340" as="sourcePoint" />
            <mxPoint x="266" y="60" as="targetPoint" />
          </mxGeometry>
        </mxCell>
        <mxCell id="Bn7r3NDw2zeTOR9xKA20-30" value="airplane_type" style="rounded=0;whiteSpace=wrap;html=1;" vertex="1" parent="1">
          <mxGeometry x="520" y="45" width="100" height="30" as="geometry" />
        </mxCell>
        <mxCell id="Bn7r3NDw2zeTOR9xKA20-31" value="&lt;u&gt;type_name&lt;/u&gt;" style="ellipse;whiteSpace=wrap;html=1;" vertex="1" parent="1">
          <mxGeometry x="510" y="156.5" width="80" height="31" as="geometry" />
        </mxCell>
        <mxCell id="Bn7r3NDw2zeTOR9xKA20-32" value="size" style="ellipse;whiteSpace=wrap;html=1;" vertex="1" parent="1">
          <mxGeometry x="600" y="140" width="70" height="30" as="geometry" />
        </mxCell>
        <mxCell id="Bn7r3NDw2zeTOR9xKA20-33" value="" style="endArrow=none;html=1;entryX=0.5;entryY=1;entryDx=0;entryDy=0;exitX=0.5;exitY=0;exitDx=0;exitDy=0;" edge="1" parent="1" source="Bn7r3NDw2zeTOR9xKA20-31" target="Bn7r3NDw2zeTOR9xKA20-30">
          <mxGeometry width="50" height="50" relative="1" as="geometry">
            <mxPoint x="380" y="340" as="sourcePoint" />
            <mxPoint x="430" y="290" as="targetPoint" />
          </mxGeometry>
        </mxCell>
        <mxCell id="Bn7r3NDw2zeTOR9xKA20-34" value="" style="endArrow=none;html=1;entryX=0.5;entryY=1;entryDx=0;entryDy=0;exitX=0.5;exitY=0;exitDx=0;exitDy=0;" edge="1" parent="1" source="Bn7r3NDw2zeTOR9xKA20-32" target="Bn7r3NDw2zeTOR9xKA20-30">
          <mxGeometry width="50" height="50" relative="1" as="geometry">
            <mxPoint x="380" y="340" as="sourcePoint" />
            <mxPoint x="430" y="290" as="targetPoint" />
          </mxGeometry>
        </mxCell>
        <mxCell id="Bn7r3NDw2zeTOR9xKA20-40" value="" style="endArrow=none;html=1;edgeStyle=orthogonalEdgeStyle;curved=1;" edge="1" parent="1">
          <mxGeometry width="50" height="50" relative="1" as="geometry">
            <mxPoint x="310" y="318" as="sourcePoint" />
            <mxPoint x="310" y="270" as="targetPoint" />
            <Array as="points">
              <mxPoint x="330" y="318" />
              <mxPoint x="330" y="270" />
            </Array>
          </mxGeometry>
        </mxCell>
        <mxCell id="Bn7r3NDw2zeTOR9xKA20-41" value="0..*" style="text;html=1;align=center;verticalAlign=middle;resizable=0;points=[];autosize=1;strokeColor=none;fillColor=none;" vertex="1" parent="1">
          <mxGeometry x="205" y="272.5" width="30" height="20" as="geometry" />
        </mxCell>
        <mxCell id="Bn7r3NDw2zeTOR9xKA20-42" value="0..*" style="text;html=1;align=center;verticalAlign=middle;resizable=0;points=[];autosize=1;strokeColor=none;fillColor=none;" vertex="1" parent="1">
          <mxGeometry x="220" y="167.5" width="30" height="20" as="geometry" />
        </mxCell>
        <mxCell id="Bn7r3NDw2zeTOR9xKA20-48" value="" style="endArrow=none;html=1;exitX=1;exitY=0.5;exitDx=0;exitDy=0;" edge="1" parent="1" source="Bn7r3NDw2zeTOR9xKA20-13">
          <mxGeometry width="50" height="50" relative="1" as="geometry">
            <mxPoint x="380" y="340" as="sourcePoint" />
            <mxPoint x="330" y="295" as="targetPoint" />
          </mxGeometry>
        </mxCell>
        <mxCell id="Bn7r3NDw2zeTOR9xKA20-49" value="" style="endArrow=none;html=1;exitX=1;exitY=0.5;exitDx=0;exitDy=0;entryX=0;entryY=0.5;entryDx=0;entryDy=0;" edge="1" parent="1" source="Bn7r3NDw2zeTOR9xKA20-19" target="Bn7r3NDw2zeTOR9xKA20-1">
          <mxGeometry width="50" height="50" relative="1" as="geometry">
            <mxPoint x="380" y="340" as="sourcePoint" />
            <mxPoint x="360" y="270" as="targetPoint" />
          </mxGeometry>
        </mxCell>
        <mxCell id="Bn7r3NDw2zeTOR9xKA20-53" value="" style="endArrow=none;html=1;edgeStyle=orthogonalEdgeStyle;curved=1;" edge="1" parent="1">
          <mxGeometry width="50" height="50" relative="1" as="geometry">
            <mxPoint x="152.5" y="145.45" as="sourcePoint" />
            <mxPoint x="205" y="145.45" as="targetPoint" />
            <Array as="points">
              <mxPoint x="152.5" y="162.45" />
              <mxPoint x="205.5" y="162.45" />
            </Array>
          </mxGeometry>
        </mxCell>
        <mxCell id="Bn7r3NDw2zeTOR9xKA20-54" value="0..*" style="text;html=1;align=center;verticalAlign=middle;resizable=0;points=[];autosize=1;strokeColor=none;fillColor=none;" vertex="1" parent="1">
          <mxGeometry x="245" y="70" width="30" height="20" as="geometry" />
        </mxCell>
        <mxCell id="Bn7r3NDw2zeTOR9xKA20-56" value="have" style="rhombus;whiteSpace=wrap;html=1;" vertex="1" parent="1">
          <mxGeometry x="170" y="92.5" width="80" height="30" as="geometry" />
        </mxCell>
        <mxCell id="Bn7r3NDw2zeTOR9xKA20-57" value="" style="endArrow=none;html=1;entryX=0.5;entryY=1;entryDx=0;entryDy=0;" edge="1" parent="1" target="Bn7r3NDw2zeTOR9xKA20-56">
          <mxGeometry width="50" height="50" relative="1" as="geometry">
            <mxPoint x="180" y="160" as="sourcePoint" />
            <mxPoint x="430" y="290" as="targetPoint" />
          </mxGeometry>
        </mxCell>
        <mxCell id="Bn7r3NDw2zeTOR9xKA20-58" value="" style="endArrow=none;html=1;exitX=0.5;exitY=0;exitDx=0;exitDy=0;" edge="1" parent="1" source="Bn7r3NDw2zeTOR9xKA20-56">
          <mxGeometry width="50" height="50" relative="1" as="geometry">
            <mxPoint x="380" y="340" as="sourcePoint" />
            <mxPoint x="270" y="60" as="targetPoint" />
          </mxGeometry>
        </mxCell>
        <mxCell id="Bn7r3NDw2zeTOR9xKA20-59" value="" style="endArrow=none;html=1;edgeStyle=orthogonalEdgeStyle;curved=1;" edge="1" parent="1">
          <mxGeometry width="50" height="50" relative="1" as="geometry">
            <mxPoint x="15" y="232.95000000000005" as="sourcePoint" />
            <mxPoint x="67.5" y="232.95000000000005" as="targetPoint" />
            <Array as="points">
              <mxPoint x="15" y="249.95" />
              <mxPoint x="68" y="249.95" />
            </Array>
          </mxGeometry>
        </mxCell>
        <mxCell id="Bn7r3NDw2zeTOR9xKA20-60" value="" style="endArrow=none;html=1;" edge="1" parent="1">
          <mxGeometry width="50" height="50" relative="1" as="geometry">
            <mxPoint x="90" y="140" as="sourcePoint" />
            <mxPoint x="40" y="250" as="targetPoint" />
          </mxGeometry>
        </mxCell>
        <mxCell id="Bn7r3NDw2zeTOR9xKA20-61" value="have" style="rhombus;whiteSpace=wrap;html=1;" vertex="1" parent="1">
          <mxGeometry x="50" y="110" width="80" height="30" as="geometry" />
        </mxCell>
        <mxCell id="Bn7r3NDw2zeTOR9xKA20-62" value="" style="endArrow=none;html=1;exitX=0.5;exitY=0;exitDx=0;exitDy=0;entryX=0.5;entryY=1;entryDx=0;entryDy=0;" edge="1" parent="1" source="Bn7r3NDw2zeTOR9xKA20-61" target="Bn7r3NDw2zeTOR9xKA20-22">
          <mxGeometry width="50" height="50" relative="1" as="geometry">
            <mxPoint x="205" y="90" as="sourcePoint" />
            <mxPoint x="230" y="40" as="targetPoint" />
            <Array as="points" />
          </mxGeometry>
        </mxCell>
        <mxCell id="Bn7r3NDw2zeTOR9xKA20-63" value="0..*" style="text;html=1;align=center;verticalAlign=middle;resizable=0;points=[];autosize=1;strokeColor=none;fillColor=none;" vertex="1" parent="1">
          <mxGeometry x="200" y="50" width="30" height="20" as="geometry" />
        </mxCell>
        <mxCell id="Bn7r3NDw2zeTOR9xKA20-65" value="" style="endArrow=none;html=1;" edge="1" parent="1" target="Bn7r3NDw2zeTOR9xKA20-74">
          <mxGeometry width="50" height="50" relative="1" as="geometry">
            <mxPoint x="270" y="60" as="sourcePoint" />
            <mxPoint x="400" y="60" as="targetPoint" />
          </mxGeometry>
        </mxCell>
        <mxCell id="Bn7r3NDw2zeTOR9xKA20-71" value="" style="endArrow=none;html=1;edgeStyle=orthogonalEdgeStyle;curved=1;" edge="1" parent="1">
          <mxGeometry width="50" height="50" relative="1" as="geometry">
            <mxPoint x="500" y="84" as="sourcePoint" />
            <mxPoint x="500" y="36" as="targetPoint" />
            <Array as="points">
              <mxPoint x="520" y="84" />
              <mxPoint x="520" y="36" />
            </Array>
          </mxGeometry>
        </mxCell>
        <mxCell id="Bn7r3NDw2zeTOR9xKA20-72" value="0..*" style="text;html=1;align=center;verticalAlign=middle;resizable=0;points=[];autosize=1;strokeColor=none;fillColor=none;" vertex="1" parent="1">
          <mxGeometry x="297" y="35" width="30" height="20" as="geometry" />
        </mxCell>
        <mxCell id="Bn7r3NDw2zeTOR9xKA20-74" value="have" style="rhombus;whiteSpace=wrap;html=1;" vertex="1" parent="1">
          <mxGeometry x="360" y="30" width="100" height="40" as="geometry" />
        </mxCell>
        <mxCell id="Bn7r3NDw2zeTOR9xKA20-75" value="" style="endArrow=none;html=1;entryX=1;entryY=0.5;entryDx=0;entryDy=0;" edge="1" parent="1" target="Bn7r3NDw2zeTOR9xKA20-74">
          <mxGeometry width="50" height="50" relative="1" as="geometry">
            <mxPoint x="520" y="60" as="sourcePoint" />
            <mxPoint x="450" y="310" as="targetPoint" />
          </mxGeometry>
        </mxCell>
        <mxCell id="Bn7r3NDw2zeTOR9xKA20-77" value="" style="endArrow=none;html=1;edgeStyle=orthogonalEdgeStyle;curved=1;" edge="1" parent="1">
          <mxGeometry width="50" height="50" relative="1" as="geometry">
            <mxPoint x="369" y="250" as="sourcePoint" />
            <mxPoint x="369" y="202" as="targetPoint" />
            <Array as="points">
              <mxPoint x="389" y="250" />
              <mxPoint x="389" y="202" />
            </Array>
          </mxGeometry>
        </mxCell>
        <mxCell id="Bn7r3NDw2zeTOR9xKA20-78" value="arrive" style="rhombus;whiteSpace=wrap;html=1;" vertex="1" parent="1">
          <mxGeometry x="297" y="92.5" width="80" height="47.5" as="geometry" />
        </mxCell>
        <mxCell id="Bn7r3NDw2zeTOR9xKA20-80" value="depart" style="rhombus;whiteSpace=wrap;html=1;" vertex="1" parent="1">
          <mxGeometry x="400" y="92.5" width="80" height="47.5" as="geometry" />
        </mxCell>
        <mxCell id="Bn7r3NDw2zeTOR9xKA20-81" value="" style="endArrow=none;html=1;exitX=0.5;exitY=0;exitDx=0;exitDy=0;" edge="1" parent="1" source="Bn7r3NDw2zeTOR9xKA20-78">
          <mxGeometry width="50" height="50" relative="1" as="geometry">
            <mxPoint x="280" y="270" as="sourcePoint" />
            <mxPoint x="270" y="60" as="targetPoint" />
          </mxGeometry>
        </mxCell>
        <mxCell id="Bn7r3NDw2zeTOR9xKA20-82" value="" style="endArrow=none;html=1;edgeStyle=orthogonalEdgeStyle;curved=1;" edge="1" parent="1">
          <mxGeometry width="50" height="50" relative="1" as="geometry">
            <mxPoint x="383.75" y="192.50000000000006" as="sourcePoint" />
            <mxPoint x="436.25" y="192.50000000000006" as="targetPoint" />
            <Array as="points">
              <mxPoint x="383.75" y="209.5" />
              <mxPoint x="436.75" y="209.5" />
            </Array>
          </mxGeometry>
        </mxCell>
        <mxCell id="Bn7r3NDw2zeTOR9xKA20-83" value="" style="endArrow=none;html=1;edgeStyle=orthogonalEdgeStyle;curved=1;" edge="1" parent="1">
          <mxGeometry width="50" height="50" relative="1" as="geometry">
            <mxPoint x="414" y="193.45000000000005" as="sourcePoint" />
            <mxPoint x="466.5" y="193.45000000000005" as="targetPoint" />
            <Array as="points">
              <mxPoint x="414" y="210.45" />
              <mxPoint x="467" y="210.45" />
            </Array>
          </mxGeometry>
        </mxCell>
        <mxCell id="Bn7r3NDw2zeTOR9xKA20-84" value="" style="endArrow=none;html=1;entryX=0.5;entryY=1;entryDx=0;entryDy=0;" edge="1" parent="1" target="Bn7r3NDw2zeTOR9xKA20-78">
          <mxGeometry width="50" height="50" relative="1" as="geometry">
            <mxPoint x="410" y="210" as="sourcePoint" />
            <mxPoint x="330" y="220" as="targetPoint" />
          </mxGeometry>
        </mxCell>
        <mxCell id="Bn7r3NDw2zeTOR9xKA20-85" value="" style="endArrow=none;html=1;exitX=0.5;exitY=0;exitDx=0;exitDy=0;entryX=0.5;entryY=1;entryDx=0;entryDy=0;" edge="1" parent="1" source="Bn7r3NDw2zeTOR9xKA20-80" target="Bn7r3NDw2zeTOR9xKA20-22">
          <mxGeometry width="50" height="50" relative="1" as="geometry">
            <mxPoint x="347" y="102.5" as="sourcePoint" />
            <mxPoint x="280" y="70" as="targetPoint" />
          </mxGeometry>
        </mxCell>
        <mxCell id="Bn7r3NDw2zeTOR9xKA20-86" value="" style="endArrow=none;html=1;entryX=0.5;entryY=1;entryDx=0;entryDy=0;exitX=0.75;exitY=0;exitDx=0;exitDy=0;" edge="1" parent="1" source="Bn7r3NDw2zeTOR9xKA20-1" target="Bn7r3NDw2zeTOR9xKA20-80">
          <mxGeometry width="50" height="50" relative="1" as="geometry">
            <mxPoint x="280" y="270" as="sourcePoint" />
            <mxPoint x="330" y="220" as="targetPoint" />
          </mxGeometry>
        </mxCell>
        <mxCell id="Bn7r3NDw2zeTOR9xKA20-87" value="0..*" style="text;html=1;align=center;verticalAlign=middle;resizable=0;points=[];autosize=1;strokeColor=none;fillColor=none;" vertex="1" parent="1">
          <mxGeometry x="322" y="50" width="30" height="20" as="geometry" />
        </mxCell>
        <mxCell id="Bn7r3NDw2zeTOR9xKA20-88" value="0..*" style="text;html=1;align=center;verticalAlign=middle;resizable=0;points=[];autosize=1;strokeColor=none;fillColor=none;" vertex="1" parent="1">
          <mxGeometry x="275" y="75" width="30" height="20" as="geometry" />
        </mxCell>
      </root>
    </mxGraphModel>
  </diagram>
</mxfile>
